# xmcd
#
# Track frame offsets:
#	150
#	15390
#	30840
#	48790
#	64582
#	81542
#	98262
#	111570
#	127040
#	141635
#
# Disc length: 2185 seconds
#
# Revision: 3
# Processed by: cddbd v1.5.2PL0 Copyright (c) Steve Scherf et al.
# Submitted via: audiograbber 1.83.01
#
DISCID=7e08870a
DTITLE=McBride and The Ride - Amarillo Sky
DYEAR=2002
DGENRE=Country
TTITLE0=Amarillo Sky
TTITLE1=Sure Feels Like It
TTITLE2=Anything That Touches You
TTITLE3=You Take My Heart There
TTITLE4=Leave Her With Me
TTITLE5=Yours
TTITLE6=Squeeze Box
TTITLE7=Why Not Colorado
TTITLE8=Hasta Luego
TTITLE9=When Somebody Loves You
EXTD=Other Entry is not ok .. so this one\n
EXTT0=
EXTT1=
EXTT2=
EXTT3=
EXTT4=
EXTT5=
EXTT6=
EXTT7=
EXTT8=
EXTT9=
PLAYORDER=
